<?xml version="1.0" encoding="utf-8"?>
<!-- Generator: Adobe Illustrator 19.2.1, SVG Export Plug-In . SVG Version: 6.00 Build 0)  -->
<svg version="1.1" id="Layer_1" xmlns="http://www.w3.org/2000/svg" xmlns:xlink="http://www.w3.org/1999/xlink" x="0px" y="0px"
	 viewBox="0 0 54 35" style="enable-background:new 0 0 54 35;" xml:space="preserve">
<style type="text/css">
	.st0{fill:none;stroke:#C1C1C1;stroke-width:4;stroke-linecap:square;stroke-miterlimit:10;}
	.st1{fill:none;stroke:#C1C1C1;stroke-width:2;stroke-linecap:square;stroke-miterlimit:10;}
</style>
<g>
	<g>
		<path class="st0" d="M2,2v28.6C2,31.7,2.8,33,3.9,33H50c1.1,0,2-1.3,2-2.4V2"/>
	</g>
	<g>
		<path class="st1" d="M45.2,5.9l-1.8,1.8c-0.8,0.8-2.1,0.8-2.8,0l-2.3-2.3c-0.8-0.8-2.1-0.8-2.8,0l-2.3,2.3c-0.8,0.8-2.1,0.8-2.8,0
			L28,5.4c-0.8-0.8-2.1-0.8-2.8,0l-2.3,2.3c-0.8,0.8-2.1,0.8-2.8,0l-2.3-2.3c-0.8-0.8-2.1-0.8-2.8,0l-2.3,2.3
			c-0.8,0.8-2.1,0.8-2.8,0L7.6,5.6"/>
	</g>
	<g>
		<path class="st1" d="M24.2,22.2c2.7,0,5.2-1.2,6.9-3.1C29.4,17.2,27,16,24.2,16c-2.7,0-5.2,1.2-6.9,3.1C19,21,21.5,22.2,24.2,22.2
			z"/>
		<polygon class="st1" points="35,23.1 31,19.1 35,15.1 		"/>
	</g>
</g>
</svg>
