<?xml version="1.0" encoding="utf-8"?>
<!-- Generator: Adobe Illustrator 19.2.1, SVG Export Plug-In . SVG Version: 6.00 Build 0)  -->
<svg version="1.1" id="Layer_1" xmlns="http://www.w3.org/2000/svg" xmlns:xlink="http://www.w3.org/1999/xlink" x="0px" y="0px"
	 viewBox="0 0 61 49.5" style="enable-background:new 0 0 61 49.5;" xml:space="preserve">
<style type="text/css">
	.st0{fill:none;stroke:#C1C1C1;stroke-width:4;stroke-linecap:square;stroke-miterlimit:10;}
	.st1{fill:none;stroke:#C1C1C1;stroke-width:3;stroke-linecap:square;stroke-miterlimit:10;}
	.st2{fill:none;stroke:#C1C1C1;stroke-width:2;stroke-linecap:square;stroke-miterlimit:10;}
	.st3{fill:none;stroke:#C1C1C1;stroke-linecap:square;stroke-miterlimit:10;}
</style>
<g>
	<g>
		<path class="st0" d="M2,2v34.5C2,37.6,2.6,39,3.7,39h53.7c1.1,0,1.5-1.4,1.5-2.5V2"/>
	</g>
	<g>
		<path class="st1" d="M58.5,48v-3c0-1.1-0.9-1.5-2-1.5H3.7c-1.1,0-2.2,0.4-2.2,1.5v3"/>
	</g>
	<g>
		<line class="st2" x1="59" y1="7" x2="2" y2="7"/>
	</g>
	<g>
		<line class="st2" x1="59" y1="30" x2="2" y2="30"/>
	</g>
	<g>
		<line class="st3" x1="59" y1="32.5" x2="2" y2="32.5"/>
	</g>
	<g>
		<line class="st2" x1="10" y1="8" x2="10" y2="28"/>
	</g>
	<g>
		<line class="st2" x1="18" y1="8" x2="18" y2="28"/>
	</g>
	<g>
		<line class="st2" x1="26" y1="8" x2="26" y2="28"/>
	</g>
	<g>
		<line class="st2" x1="34" y1="8" x2="34" y2="28"/>
	</g>
	<g>
		<line class="st2" x1="42" y1="8" x2="42" y2="28"/>
	</g>
	<g>
		<line class="st2" x1="50" y1="8" x2="50" y2="28"/>
	</g>
</g>
</svg>
