<?xml version="1.0" encoding="utf-8"?>
<!-- Generator: Adobe Illustrator 19.2.1, SVG Export Plug-In . SVG Version: 6.00 Build 0)  -->
<svg version="1.1" id="Layer_1" xmlns="http://www.w3.org/2000/svg" xmlns:xlink="http://www.w3.org/1999/xlink" x="0px" y="0px"
	 viewBox="0 0 69 53" style="enable-background:new 0 0 69 53;" xml:space="preserve">
<style type="text/css">
	.st0{fill:none;stroke:#C1C1C1;stroke-width:2;stroke-linecap:square;stroke-miterlimit:10;}
	.st1{fill:none;stroke:#C1C1C1;stroke-width:3;stroke-linecap:square;stroke-miterlimit:10;}
	.st2{fill:none;stroke:#C1C1C1;stroke-width:4;stroke-linecap:square;stroke-miterlimit:10;}
	.st3{fill:#FFFFFF;stroke:#C1C1C1;stroke-miterlimit:10;}
</style>
<g>
	<g>
		<line class="st0" x1="41" y1="14" x2="41" y2="48"/>
	</g>
	<g>
		<line class="st0" x1="4" y1="14" x2="67" y2="14"/>
	</g>
	<g>
		<line class="st0" x1="20" y1="1" x2="8" y2="1"/>
	</g>
	<g>
		<line class="st0" x1="41" y1="1" x2="29" y2="1"/>
	</g>
	<g>
		<line class="st0" x1="62" y1="1" x2="50" y2="1"/>
	</g>
	<g>
		<line class="st1" x1="12" y1="51.5" x2="6" y2="51.5"/>
	</g>
	<g>
		<line class="st1" x1="65" y1="51.5" x2="59" y2="51.5"/>
	</g>
	<g>
		<path class="st2" d="M67,47c0,1.1-0.9,2-2,2H4c-1.1,0-2-0.9-2-2V6c0-1.1,0.9-2,2-2h61c1.1,0,2,0.9,2,2V47z"/>
	</g>
	<g>
		<path class="st0" d="M34,36c0,1.1-0.9,2-2,2H13c-1.1,0-2-0.9-2-2V24c0-1.1,0.9-2,2-2h19c1.1,0,2,0.9,2,2V36z"/>
	</g>
	<line class="st0" x1="25" y1="26.8" x2="17.4" y2="34.4"/>
	<line class="st0" x1="30.4" y1="26.8" x2="22.9" y2="34.4"/>
	<circle class="st3" cx="14.8" cy="9.2" r="1.6"/>
	<circle class="st3" cx="24.8" cy="9.2" r="1.6"/>
	<circle class="st3" cx="34.8" cy="9.2" r="1.6"/>
	<circle class="st3" cx="44.8" cy="9.2" r="1.6"/>
	<circle class="st3" cx="54.8" cy="9.2" r="1.6"/>
</g>
</svg>
