<?xml version="1.0" encoding="utf-8"?>
<!-- Generator: Adobe Illustrator 19.2.1, SVG Export Plug-In . SVG Version: 6.00 Build 0)  -->
<svg version="1.1" id="Слой_1" xmlns="http://www.w3.org/2000/svg" xmlns:xlink="http://www.w3.org/1999/xlink" x="0px" y="0px"
	 viewBox="0 0 158 157" style="enable-background:new 0 0 158 157;" xml:space="preserve">
<style type="text/css">
	.st0{fill:#120BBF;}
</style>
<g>
	<path class="st0" d="M85,157c-4,0-8,0-12,0c-1.3-0.4-2.5-0.9-3.8-1.1c-33.6-4.1-60.4-28.8-67.2-61.8C1.4,91.1,0.7,88,0,85
		c0-4.3,0-8.7,0-13c0.4-1.1,0.9-2.1,1.1-3.2C5.4,36.4,27.9,11.1,59.5,2.9c4.5-1.1,9-2,13.5-2.9c4,0,8,0,12,0
		c1.3,0.4,2.5,0.9,3.8,1.1c33.5,4.1,60.3,28.7,67.2,61.8c0.7,3.4,1.4,6.8,2.1,10.2c0,4,0,8,0,12c-0.4,1.1-0.9,2.1-1.1,3.2
		c-4.3,32.6-27.6,58.5-59.3,66.2C93.4,155.4,89.2,156.1,85,157z M41.5,78.2c-0.2,20.6,16.4,37.6,37.2,37.8
		c20.5,0.3,37.6-16.6,37.8-37.2C116.7,58.1,100,41.2,79.3,41C58.8,40.7,41.7,57.5,41.5,78.2z"/>
	<path class="st0" d="M148,157c-2.2-2.3-5.2-4.3-6.3-7c-1.4-3.5,0.7-6.7,4.1-8.6c3.7-2,7-1,9.8,1.9c1,1.1,1.6,2.4,2.4,3.7"/>
</g>
<circle class="st0" cx="150" cy="148.5" r="8"/>
<circle class="st0" cx="150" cy="148" r="7.5"/>
<circle class="st0" cx="149" cy="147.5" r="7.5"/>
</svg>
